<svg xmlns="http://www.w3.org/2000/svg" xmlns:xlink="http://www.w3.org/1999/xlink" version="1.1" x="0px" y="0px" viewBox="0 0 96 96" style="enable-background:new 0 0 96 96;" xml:space="preserve"><style type="text/css">
	.st0{fill-rule:evenodd;clip-rule:evenodd;}
</style><path d="M21.086,73.821c1.577-1.388,2.575-3.419,2.575-5.681c0-4.173-3.395-7.568-7.568-7.568c-4.173,0-7.568,3.395-7.568,7.568  c0,2.261,0.998,4.292,2.575,5.68c-5.023,1.994-8.586,6.899-8.586,12.624c0,0.785,0.636,1.421,1.421,1.421h24.315  c0.785,0,1.421-0.636,1.421-1.421C29.672,80.72,26.11,75.815,21.086,73.821z M11.368,68.14c0-2.606,2.12-4.725,4.725-4.725  c2.606,0,4.725,2.12,4.725,4.725c0,2.605-2.118,4.724-4.722,4.725c-0.001,0-0.002,0-0.003,0c-0.001,0-0.002,0-0.003,0  C13.486,72.864,11.368,70.745,11.368,68.14z M5.451,85.023c0.697-5.25,5.202-9.313,10.639-9.315c0.001,0,0.002,0,0.004,0  c0.001,0,0.002,0,0.004,0c5.437,0.002,9.942,4.065,10.639,9.315H5.451z M52.815,73.821c1.577-1.388,2.575-3.419,2.575-5.681  c0-4.173-3.395-7.568-7.568-7.568c-4.173,0-7.568,3.395-7.568,7.568c0,2.261,0.998,4.292,2.575,5.68  c-5.023,1.994-8.586,6.899-8.586,12.624c0,0.785,0.636,1.421,1.421,1.421h24.315c0.785,0,1.421-0.636,1.421-1.421  C61.401,80.72,57.838,75.815,52.815,73.821z M43.096,68.14c0-2.606,2.12-4.725,4.725-4.725c2.606,0,4.725,2.12,4.725,4.725  c0,2.605-2.118,4.724-4.722,4.725c-0.001,0-0.002,0-0.003,0c-0.001,0-0.002,0-0.003,0C45.214,72.864,43.096,70.745,43.096,68.14z   M37.179,85.023c0.697-5.25,5.202-9.313,10.639-9.315c0.001,0,0.002,0,0.004,0c0.001,0,0.002,0,0.004,0  c5.437,0.002,9.942,4.065,10.639,9.315H37.179z M84.543,73.821c1.577-1.388,2.575-3.419,2.575-5.681  c0-4.173-3.395-7.568-7.568-7.568c-4.173,0-7.568,3.395-7.568,7.568c0,2.261,0.998,4.292,2.575,5.68  c-5.023,1.994-8.586,6.899-8.586,12.624c0,0.785,0.636,1.421,1.421,1.421h24.315c0.785,0,1.421-0.636,1.421-1.421  C93.129,80.72,89.566,75.815,84.543,73.821z M74.824,68.14c0-2.606,2.12-4.725,4.725-4.725s4.725,2.12,4.725,4.725  c0,2.605-2.118,4.724-4.722,4.725c-0.001,0-0.002,0-0.003,0c-0.001,0-0.002,0-0.003,0C76.942,72.864,74.824,70.745,74.824,68.14z   M68.907,85.023c0.697-5.25,5.202-9.313,10.639-9.315c0.001,0,0.002,0,0.004,0c0.001,0,0.002,0,0.004,0  c5.437,0.002,9.942,4.065,10.639,9.315H68.907z M88.496,8.134H49.719c-2.751,0-4.989,2.238-4.989,4.989v23.504  c0,2.751,2.238,4.989,4.989,4.989h17.967v8.292l-4.674,4.674c-0.555,0.555-0.555,1.455,0,2.01c0.555,0.555,1.455,0.555,2.01,0  l4.085-4.086l4.085,4.086c0.278,0.277,0.641,0.416,1.005,0.416c0.364,0,0.728-0.139,1.005-0.416c0.555-0.555,0.555-1.455,0-2.01  l-4.674-4.674v-8.292h17.967c2.751,0,4.989-2.238,4.989-4.989V13.123C93.486,10.372,91.247,8.134,88.496,8.134z M90.643,36.627  c0,1.184-0.963,2.147-2.147,2.147H49.719c-1.184,0-2.147-0.963-2.147-2.147V13.123c0-1.184,0.963-2.146,2.147-2.146h38.777  c1.184,0,2.147,0.963,2.147,2.146V36.627z M85.969,24.875c0,0.785-0.636,1.421-1.421,1.421H68.224c-0.785,0-1.421-0.636-1.421-1.421  s0.636-1.421,1.421-1.421h16.324C85.333,23.454,85.969,24.09,85.969,24.875z M63.593,24.875c0,0.785-0.636,1.421-1.421,1.421h-8.504  c-0.785,0-1.421-0.636-1.421-1.421s0.636-1.421,1.421-1.421h8.504C62.957,23.454,63.593,24.09,63.593,24.875z M85.969,32.263  c0,0.785-0.636,1.421-1.421,1.421H78.66c-0.785,0-1.421-0.636-1.421-1.421s0.636-1.421,1.421-1.421h5.888  C85.333,30.842,85.969,31.478,85.969,32.263z M74.861,32.263c0,0.785-0.636,1.421-1.421,1.421h-5.215  c-0.785,0-1.421-0.636-1.421-1.421s0.636-1.421,1.421-1.421h5.215C74.224,30.842,74.861,31.478,74.861,32.263z M63.593,32.263  c0,0.785-0.636,1.421-1.421,1.421h-8.504c-0.785,0-1.421-0.636-1.421-1.421s0.636-1.421,1.421-1.421h8.504  C62.957,30.842,63.593,31.478,63.593,32.263z M85.969,17.487c0,0.785-0.636,1.421-1.421,1.421h-30.88  c-0.785,0-1.421-0.636-1.421-1.421c0-0.785,0.636-1.421,1.421-1.421h30.88C85.333,16.066,85.969,16.702,85.969,17.487z   M5.334,49.213H40.18c0.785,0,1.421-0.636,1.421-1.421v-6.53c0-0.785-0.636-1.421-1.421-1.421h-2.745  c-0.546-5.677-4.322-10.421-9.464-12.371c1.799-1.498,2.946-3.753,2.946-6.271c0-4.499-3.66-8.159-8.159-8.159  c-4.499,0-8.159,3.66-8.159,8.159c0,2.518,1.147,4.773,2.946,6.271c-5.142,1.95-8.919,6.695-9.464,12.371H5.334  c-0.785,0-1.421,0.636-1.421,1.421v6.53C3.913,48.576,4.549,49.213,5.334,49.213z M17.441,21.198c0-2.931,2.385-5.316,5.316-5.316  s5.316,2.385,5.316,5.316c0,2.93-2.383,5.314-5.313,5.316c-0.001,0-0.002,0-0.003,0c-0.001,0-0.002,0-0.003,0  C19.824,26.513,17.441,24.129,17.441,21.198z M22.753,29.357c0.001,0,0.002,0,0.003,0c0.001,0,0.002,0,0.003,0  c6.081,0.002,11.108,4.588,11.813,10.483H10.94C11.645,33.945,16.672,29.359,22.753,29.357z M6.756,42.683h32.003v3.687H6.756  V42.683z"></path></svg>