<svg xmlns:inkscape="http://www.inkscape.org/namespaces/inkscape" xmlns:sodipodi="http://sodipodi.sourceforge.net/DTD/sodipodi-0.dtd" xmlns="http://www.w3.org/2000/svg" xmlns:svg="http://www.w3.org/2000/svg" xmlns:rdf="http://www.w3.org/1999/02/22-rdf-syntax-ns#" xmlns:cc="http://creativecommons.org/ns#" xmlns:dc="http://purl.org/dc/elements/1.1/" viewBox="0 0 16.933333 16.933334" version="1.1" x="0px" y="0px"><g><path style="color:#000000;" d="m 8.4666653,4.1785542 c -1.1968188,0 -2.1719592,0.978802 -2.1719592,2.177645 0,0.766529 0.3985683,1.443627 0.9989052,1.83193 -0.7520701,0.241861 -1.4022149,0.710133 -1.8712021,1.324983 -0.1932252,-0.129408 -0.4024365,-0.236689 -0.6242526,-0.318326 0.4162028,-0.314132 0.686263,-0.8133 0.686263,-1.37356 0,-0.946468 -0.7707074,-1.720824 -1.7151402,-1.720824 -0.9444329,0 -1.7146244,0.774356 -1.7146244,1.720824 0,0.56052 0.2702481,1.059971 0.686779,1.374076 -1.1374067,0.419987 -1.9487171,1.5168108 -1.9487171,2.8034458 v 0.49041 a 0.26458299,0.26458299 0 0 0 0.2656152,0.265618 0.26458299,0.26458299 0 0 0 0.2640674,-0.265618 v -0.49041 c 0,-1.366219 1.08771,-2.4566958 2.4468799,-2.4566958 0.5064389,0 0.9732274,0.151752 1.3616728,0.412895 C 4.8161853,10.51275 4.6364089,11.15751 4.6364089,11.844752 v 0.644406 a 0.26458349,0.26458349 0 0 0 0.2640674,0.265618 0.26458349,0.26458349 0 0 0 0.2656178,-0.265618 v -0.644406 c 0,-0.66086 0.18932,-1.274302 0.517279,-1.789035 a 0.26458299,0.26458299 0 0 0 0.00207,-0.0021 0.26458299,0.26458299 0 0 0 0.033073,-0.05219 C 6.308529,9.1143402 7.3157025,8.5338152 8.4666664,8.5338152 c 1.1522022,0 2.1599546,0.582009 2.7497036,1.4707128 a 0.26458299,0.26458299 0 0 0 0.03152,0.04909 0.26458299,0.26458299 0 0 0 0.0021,0.0021 c 0.327959,0.514733 0.517279,1.128175 0.517279,1.789035 v 0.644406 a 0.26458349,0.26458349 0 0 0 0.265618,0.265618 0.26458349,0.26458349 0 0 0 0.264067,-0.265618 v -0.644406 c 0,-0.687242 -0.179773,-1.332002 -0.494543,-1.8898048 0.388446,-0.261143 0.855234,-0.412895 1.361673,-0.412895 1.35917,0 2.447396,1.0904768 2.447396,2.4566958 v 0.49041 a 0.26458299,0.26458299 0 0 0 0.263549,0.265618 0.26458299,0.26458299 0 0 0 0.265617,-0.265618 v -0.49041 c 0,-1.286793 -0.811085,-2.3835758 -1.948717,-2.8034458 0.416534,-0.314105 0.686779,-0.813556 0.686779,-1.374076 0,-0.946468 -0.770183,-1.720824 -1.714624,-1.720824 -0.94443,0 -1.71514,0.774356 -1.71514,1.720824 0,0.560131 0.270221,1.059415 0.686263,1.37356 -0.221814,0.08164 -0.431028,0.188918 -0.624253,0.318326 -0.46899,-0.61485 -1.119134,-1.083122 -1.8712019,-1.324983 0.6003339,-0.388303 0.9989049,-1.065401 0.9989049,-1.83193 0,-1.198843 -0.9751506,-2.177645 -2.1719616,-2.177645 z m 0,0.529166 c 0.910082,0 1.6427957,0.734865 1.6427957,1.648479 0,0.913614 -0.7327137,1.648478 -1.6427957,1.648478 -0.9100793,0 -1.6427926,-0.734864 -1.6427926,-1.648478 0,-0.913614 0.7327133,-1.648479 1.6427926,-1.648479 z m -4.6973859,1.921849 c 0.6573202,0 1.1854576,0.530048 1.1854576,1.191657 0,0.661612 -0.5281374,1.191143 -1.1854576,1.191143 -0.6573203,0 -1.1854577,-0.529531 -1.1854577,-1.191143 0,-0.661609 0.5281374,-1.191657 1.1854577,-1.191657 z m 9.3947746,0 c 0.65732,0 1.185458,0.530048 1.185458,1.191657 0,0.661612 -0.528138,1.191143 -1.185458,1.191143 -0.65732,0 -1.185458,-0.529531 -1.185458,-1.191143 0,-0.661609 0.528138,-1.191657 1.185458,-1.191657 z" fill="#000000" stroke-width="1" stroke-linecap="round" stroke-linejoin="round"></path></g></svg>