<svg xmlns="http://www.w3.org/2000/svg" xmlns:xlink="http://www.w3.org/1999/xlink" version="1.1" x="0px" y="0px" viewBox="0 0 96 96" style="enable-background:new 0 0 96 96;" xml:space="preserve"><style type="text/css">
	.st0{fill-rule:evenodd;clip-rule:evenodd;}
</style><path d="M12.085,48.983c1.754-10.676,8.133-19.955,17.503-25.46c0.678-0.398,1.548-0.171,1.946,0.506  c0.398,0.677,0.171,1.548-0.505,1.946c-8.639,5.076-14.521,13.63-16.137,23.47c-0.115,0.697-0.717,1.191-1.401,1.191  c-0.077,0-0.154-0.006-0.232-0.019C12.482,50.488,11.958,49.757,12.085,48.983z M64.972,25.974  c8.639,5.076,14.521,13.63,16.137,23.47c0.115,0.697,0.717,1.191,1.401,1.191c0.077,0,0.154-0.006,0.232-0.019  c0.775-0.127,1.299-0.858,1.172-1.633c-1.754-10.675-8.133-19.955-17.503-25.46c-0.677-0.398-1.548-0.171-1.946,0.505  C64.069,24.705,64.296,25.576,64.972,25.974z M60.054,86.251c-3.843,1.48-7.898,2.23-12.054,2.23c-4.156,0-8.211-0.75-12.054-2.23  c-0.732-0.282-1.555,0.083-1.837,0.816c-0.282,0.733,0.083,1.555,0.816,1.837c4.17,1.606,8.569,2.42,13.075,2.42  c4.506,0,8.905-0.814,13.075-2.42c0.733-0.282,1.098-1.105,0.816-1.837C61.609,86.334,60.786,85.969,60.054,86.251z M63.194,33.797  c0,0.785-0.636,1.421-1.421,1.421H34.228c-0.785,0-1.421-0.636-1.421-1.421c0-6.516,4.124-12.086,9.899-14.24  c-1.884-1.539-3.09-3.879-3.09-6.496c0-4.623,3.761-8.385,8.385-8.385s8.385,3.761,8.385,8.385c0,2.617-1.206,4.957-3.09,6.496  C59.07,21.711,63.194,27.28,63.194,33.797z M42.458,13.061c0,3.056,2.486,5.542,5.542,5.542c3.056,0,5.542-2.486,5.542-5.542  S51.056,7.519,48,7.519C44.944,7.519,42.458,10.005,42.458,13.061z M60.27,32.375c-0.707-6.144-5.94-10.93-12.27-10.93  s-11.563,4.786-12.27,10.93H60.27z M93.486,81.541c0,0.785-0.636,1.421-1.421,1.421H64.519c-0.785,0-1.421-0.636-1.421-1.421  c0-6.516,4.124-12.086,9.899-14.24c-1.884-1.539-3.09-3.879-3.09-6.496c0-4.623,3.761-8.385,8.385-8.385s8.385,3.761,8.385,8.385  c0,2.617-1.206,4.957-3.09,6.496C89.361,69.455,93.486,75.025,93.486,81.541z M78.292,66.347c3.056,0,5.542-2.486,5.542-5.542  c0-3.056-2.486-5.542-5.542-5.542s-5.542,2.486-5.542,5.542C72.75,63.861,75.236,66.347,78.292,66.347z M90.562,80.12  c-0.707-6.144-5.94-10.93-12.27-10.93s-11.563,4.786-12.27,10.93H90.562z M32.902,81.541c0,0.785-0.636,1.421-1.421,1.421H3.936  c-0.785,0-1.421-0.636-1.421-1.421c0-6.516,4.124-12.086,9.899-14.24c-1.884-1.539-3.09-3.879-3.09-6.495  c0-4.623,3.761-8.385,8.385-8.385s8.385,3.761,8.385,8.385c0,2.617-1.206,4.957-3.09,6.496  C28.778,69.455,32.902,75.025,32.902,81.541z M12.167,60.805c0,3.056,2.486,5.542,5.542,5.542s5.542-2.486,5.542-5.542  c0-3.056-2.486-5.542-5.542-5.542S12.167,57.749,12.167,60.805z M29.978,80.12c-0.707-6.144-5.94-10.93-12.27-10.93  S6.145,73.976,5.438,80.12H29.978z"></path></svg>