<svg xmlns="http://www.w3.org/2000/svg" xmlns:xlink="http://www.w3.org/1999/xlink" version="1.1" x="0px" y="0px" viewBox="0 0 420 420" style="enable-background:new 0 0 420 420;" xml:space="preserve"><style type="text/css">
	.st0{fill-rule:evenodd;clip-rule:evenodd;}
</style><g><g><g><g><g><g><path class="st0" d="M31.69,191.9c-2.23,0-4.3-1.3-5.23-3.38c-1.03-2.26-0.48-4.92,1.34-6.62l69.29-63.86        c0.91-0.84,2.06-1.37,3.29-1.49l94.73-10.15c2.47-0.26,4.82,1.08,5.86,3.36c1.03,2.26,0.48,4.92-1.34,6.62l-69.29,63.84        c-0.91,0.84-2.06,1.37-3.29,1.49l-94.73,10.15C32.1,191.9,31.89,191.9,31.69,191.9L31.69,191.9z M103.48,127.8l-55.06,50.76        l75.5-8.09l55.06-50.76L103.48,127.8z"></path></g><g><path class="st0" d="M96.73,239.4c-4.68,0-8.88-0.43-12.34-1.25c-6.1-1.44-10.1-4.15-11.93-8.02L53.6,190.31        c-1.37-2.88-0.14-6.31,2.74-7.68s6.31-0.14,7.68,2.74l18.84,39.77c0.14,0.17,1.3,1.27,5.33,2.04        c3.86,0.74,8.9,0.89,14.59,0.46c13.37-1.06,28.56-5.16,42.77-11.57c14.14-6.38,27.14-14.98,36.6-24.19        c4.03-3.91,7.18-7.75,9.1-11.06c1.99-3.43,1.92-4.97,1.9-5.21l-18.84-39.74c-1.37-2.88-0.14-6.31,2.74-7.68        s6.31-0.14,7.68,2.74l18.86,39.82c1.49,3.14,1.44,6.86-0.1,11.09c-2.47,6.72-8.93,14.81-18.17,22.75        c-9.86,8.5-21.98,16.08-35.02,21.98c-15.96,7.2-33.02,11.69-48.05,12.65C100.36,239.35,98.51,239.4,96.73,239.4L96.73,239.4z         M82.84,225.12L82.84,225.12L82.84,225.12z"></path></g></g><g><path class="st0" d="M43.5,259.63L43.5,259.63c-3.19,0-5.78-2.59-5.76-5.78L38,184.83c0-3.17,2.59-5.74,5.76-5.74h0.02       c3.19,0,5.76,2.59,5.74,5.78l-0.26,69.02C49.26,257.06,46.67,259.63,43.5,259.63z"></path></g><g><g><g><path class="st0" d="M388.81,315.12H90.57c-3.19,0-5.76-2.57-5.76-5.76v-75.72c0-3.19,2.57-5.76,5.76-5.76         c3.19,0,5.76,2.57,5.76,5.76v69.96h286.73V181.49H198.9c-3.19,0-5.76-2.57-5.76-5.76s2.57-5.76,5.76-5.76h189.91         c3.19,0,5.76,2.57,5.76,5.76v133.63C394.57,312.55,392.01,315.12,388.81,315.12z"></path></g><g><g><g><path class="st0" d="M165.76,264.82H121.7c-3.19,0-5.76-2.57-5.76-5.76s2.57-5.76,5.76-5.76h44.06           c3.19,0,5.76,2.57,5.76,5.76C171.52,262.25,168.93,264.82,165.76,264.82z"></path></g></g><g><g><path class="st0" d="M357.66,231.79H313.6c-3.19,0-5.76-2.57-5.76-5.76s2.57-5.76,5.76-5.76h44.06           c3.19,0,5.76,2.57,5.76,5.76S360.85,231.79,357.66,231.79z"></path></g><g><path class="st0" d="M357.66,264.82H313.6c-3.19,0-5.76-2.57-5.76-5.76s2.57-5.76,5.76-5.76h44.06           c3.19,0,5.76,2.57,5.76,5.76S360.85,264.82,357.66,264.82z"></path></g></g></g></g><g><g><path class="st0" d="M239.68,281.38c-11.33,0-21.22-6.84-24.07-16.63c-0.89-3.05,0.86-6.24,3.91-7.15         c3.05-0.89,6.24,0.86,7.15,3.91c1.42,4.82,6.86,8.33,13.01,8.33c7.37,0,13.34-4.82,13.34-10.78c0-1.8,0-7.22-14.71-10.92         c-6.36-1.46-11.54-3.74-15.46-6.74c-5.28-4.03-8.06-9.36-8.06-15.38c0-12.29,11.16-22.3,24.86-22.3         c11.23,0,21.1,6.77,24.02,16.46c0.91,3.05-0.82,6.26-3.86,7.18s-6.26-0.82-7.18-3.86c-1.44-4.78-6.89-8.26-12.98-8.26         c-7.37,0-13.34,4.82-13.34,10.78c0,1.51,0.36,3.82,3.55,6.24c2.57,1.97,6.41,3.58,11.11,4.68c0.02,0,0.07,0.02,0.1,0.02         c6.72,1.68,11.86,3.94,15.65,6.86c5.11,3.94,7.82,9.22,7.82,15.26C264.57,271.37,253.41,281.38,239.68,281.38z"></path></g><g><path class="st0" d="M239.68,291.19c-3.19,0-5.76-2.57-5.76-5.76v-85.75c0-3.19,2.57-5.76,5.76-5.76s5.76,2.57,5.76,5.76         v85.75C245.44,288.6,242.87,291.19,239.68,291.19z"></path></g></g></g></g></g></g></g></svg>