<svg xmlns="http://www.w3.org/2000/svg" xmlns:xlink="http://www.w3.org/1999/xlink" xml:space="preserve" version="1.1" style="shape-rendering:geometricPrecision;text-rendering:geometricPrecision;image-rendering:optimizeQuality;" viewBox="0 0 847 847" x="0px" y="0px" fill-rule="evenodd" clip-rule="evenodd"><defs><style type="text/css">
   
    .fil0 {fill:black}
   
  </style></defs><g><path class="fil0" d="M423 58c202,0 366,163 366,365 0,202 -164,366 -366,366 -202,0 -365,-164 -365,-366 0,-202 163,-365 365,-365zm23 132l0 12c63,9 117,58 117,125 0,41 -67,41 -67,0 0,-30 -23,-53 -50,-61l0 128c63,9 117,58 117,125 0,68 -54,117 -117,126l0 11c0,30 -45,30 -45,0l0 -11c-63,-9 -118,-58 -118,-126 0,-41 68,-41 68,0 0,31 22,54 50,62l0 -128c-63,-10 -118,-59 -118,-126 0,-67 55,-116 118,-125l0 -12c0,-29 45,-29 45,0zm0 268l0 123c27,-8 50,-31 50,-62 0,-30 -23,-53 -50,-61zm-45 -69l0 -123c-28,8 -50,31 -50,61 0,31 23,54 50,62zm22 -283c176,0 318,142 318,317 0,176 -142,318 -318,318 -175,0 -317,-142 -317,-318 0,-175 142,-317 317,-317z"></path></g></svg>