<svg xmlns="http://www.w3.org/2000/svg" viewBox="0 0 64 64" x="0px" y="0px"><title>graduation cap</title><path d="M33.6064,18.1279a1,1,0,1,0,.7872-1.8379l-2-.8569a.9934.9934,0,0,0-.7872,0l-9,3.8569a1,1,0,1,0,.7872,1.8379L32,17.44Z"></path><circle cx="38" cy="19" r="1"></circle><path d="M3.6064,24.9189,11,28.0876V37.75a.9989.9989,0,0,0,.2529.6646C16.209,43.99,23.7705,47.1875,32,47.1875a30.09,30.09,0,0,0,10.0518-1.7A3.9323,3.9323,0,0,0,42,46v6a1,1,0,0,0,1,1h6a1,1,0,0,0,1-1V46a3.9865,3.9865,0,0,0-2.0317-3.4609,24.57,24.57,0,0,0,4.7788-4.1245A.9989.9989,0,0,0,53,37.75V28.0876l7.3936-3.1687a.9994.9994,0,0,0,0-1.8378l-28-12a.9934.9934,0,0,0-.7872,0l-28,12a.9994.9994,0,0,0,0,1.8378ZM32,45.1875a25.6553,25.6553,0,0,1-19-7.8228v-8.42l18.6064,7.9741a.9957.9957,0,0,0,.7872,0L45,31.5162V42.0026A27.3019,27.3019,0,0,1,32,45.1875ZM48,46v5H44V46a2,2,0,0,1,4,0Zm3-8.6353a22.61,22.61,0,0,1-4,3.4228V30.6591l4-1.7143ZM32,13.0879,57.4609,24,46,28.9122,32.3936,23.0811a1,1,0,1,0-.7872,1.8378L43.4616,30,32,34.9121,6.5391,24Z"></path></svg>